<svg id="Layer_2" data-name="Layer 2" xmlns="http://www.w3.org/2000/svg" viewBox="0 0 200 200"><defs><style>.cls-1{fill:#c90016;}.cls-2{fill:#939393;}</style></defs><title>concordium</title><circle class="cls-1" cx="55.83" cy="58.18" r="11.52"/><circle class="cls-1" cx="158.08" cy="73.06" r="11.52"/><circle class="cls-1" cx="88.48" cy="156.4" r="11.52"/><path class="cls-1" d="M51.75,64.39a88.61,88.61,0,0,0,.59,38.41c1.42,5.88,5.91,23.59,20.79,38.8,1.58,1.62,3,2.89,4,3.77a11.75,11.75,0,0,1,2.33-2.26A11.9,11.9,0,0,1,83,141.34a81,81,0,0,1-13.58-16.62A84,84,0,0,1,58.84,97.19a86.24,86.24,0,0,1-.2-32.25Z"/><path class="cls-1" d="M93.16,148.56a75.35,75.35,0,0,0,9.64-4.27,82.39,82.39,0,0,0,25.28-21.23A92.66,92.66,0,0,0,142.31,100a86.79,86.79,0,0,0,4.82-15.4A18.37,18.37,0,0,0,150.4,87a18.91,18.91,0,0,0,3.18,1.48,106.3,106.3,0,0,1-9.72,24,102.69,102.69,0,0,1-16,21.78,93.74,93.74,0,0,1-21.54,16.41,91.86,91.86,0,0,1-9.8,4.63Z"/><circle class="cls-1" cx="104.61" cy="79.48" r="11.52"/><path class="cls-2" d="M158.4,89a59,59,0,0,1-53.92,67.32c0,.07,0,.13,0,.19a16,16,0,0,1-2.22,8.11,67.17,67.17,0,0,0,65.21-67.13,67.92,67.92,0,0,0-.9-10.93A15.86,15.86,0,0,1,158.4,89Z"/><path class="cls-2" d="M41,97.53a58.88,58.88,0,0,1,6-26,16,16,0,0,1-5.57-6.38,67.2,67.2,0,0,0,31.21,93.6,15.55,15.55,0,0,1,1.07-8.38A59,59,0,0,1,41,97.53Z"/><path class="cls-2" d="M146.85,61.66a16,16,0,0,1,7.42-4.13A67.15,67.15,0,0,0,61,43.06a16,16,0,0,1,7.06,4.84,59,59,0,0,1,78.77,13.76Z"/><path class="cls-1" d="M85.35,57.94a39.53,39.53,0,0,0-8-3.48A35.61,35.61,0,0,0,71,53.16a16,16,0,0,1,.81,5,17,17,0,0,1-.12,1.91A37.7,37.7,0,0,1,95.5,75.9l6-5.46A83.39,83.39,0,0,0,85.35,57.94Z"/><path class="cls-1" d="M130.24,63.83a41.66,41.66,0,0,0-14.14,4.52,16,16,0,0,1,3.83,6.49,31.39,31.39,0,0,1,28.62-2.39,16.48,16.48,0,0,1,2.06-6.19A41.91,41.91,0,0,0,130.24,63.83Z"/></svg>